<svg xmlns="http://www.w3.org/2000/svg" xmlns:xlink="http://www.w3.org/1999/xlink" width="40" zoomAndPan="magnify" viewBox="0 0 30 30.000001" height="40" preserveAspectRatio="xMidYMid meet" version="1.0"><defs><clipPath id="bec82d30f0"><path d="M 0.484375 0 L 29.515625 0 L 29.515625 29.03125 L 0.484375 29.03125 Z M 0.484375 0 " clip-rule="nonzero"/></clipPath></defs><g clip-path="url(#bec82d30f0)"><path fill="#ffffff" d="M 0.484375 0 L 29.515625 0 L 29.515625 29.03125 L 0.484375 29.03125 Z M 0.484375 0 " fill-opacity="1" fill-rule="nonzero"/><path fill="#ffffff" d="M 0.484375 0 L 29.515625 0 L 29.515625 29.03125 L 0.484375 29.03125 Z M 0.484375 0 " fill-opacity="1" fill-rule="nonzero"/></g><path fill="#32d3c0" d="M 9.144531 20.296875 C 9.527344 20.679688 9.945312 21.019531 10.390625 21.320312 C 10.839844 21.621094 11.316406 21.875 11.816406 22.082031 C 12.3125 22.289062 12.828125 22.445312 13.359375 22.550781 C 13.886719 22.65625 14.421875 22.707031 14.964844 22.707031 C 15.503906 22.707031 16.039062 22.65625 16.570312 22.550781 C 17.097656 22.445312 17.613281 22.289062 18.113281 22.082031 C 18.609375 21.875 19.085938 21.621094 19.535156 21.320312 C 19.984375 21.019531 20.398438 20.679688 20.78125 20.296875 C 21.164062 19.914062 21.503906 19.5 21.804688 19.050781 C 22.105469 18.601562 22.359375 18.128906 22.566406 17.628906 C 22.773438 17.128906 22.925781 16.613281 23.03125 16.085938 C 23.136719 15.554688 23.191406 15.019531 23.191406 14.480469 C 23.191406 13.941406 23.136719 13.40625 23.03125 12.875 C 22.925781 12.34375 22.773438 11.832031 22.566406 11.332031 C 22.359375 10.832031 22.105469 10.359375 21.804688 9.910156 C 21.503906 9.460938 21.164062 9.042969 20.78125 8.664062 C 20.398438 8.28125 19.984375 7.9375 19.535156 7.640625 C 19.085938 7.339844 18.609375 7.085938 18.113281 6.878906 C 17.613281 6.671875 17.097656 6.515625 16.570312 6.410156 C 16.039062 6.304688 15.503906 6.253906 14.964844 6.253906 C 14.421875 6.253906 13.886719 6.304688 13.359375 6.410156 C 12.828125 6.515625 12.3125 6.671875 11.816406 6.878906 C 11.316406 7.085938 10.839844 7.339844 10.390625 7.640625 C 9.945312 7.941406 9.527344 8.28125 9.144531 8.664062 C 8.765625 9.042969 8.421875 9.460938 8.125 9.910156 C 7.824219 10.359375 7.570312 10.832031 7.363281 11.332031 C 7.15625 11.832031 7 12.34375 6.894531 12.875 C 6.789062 13.40625 6.738281 13.941406 6.738281 14.480469 C 6.738281 15.019531 6.789062 15.554688 6.894531 16.085938 C 7 16.613281 7.15625 17.128906 7.363281 17.628906 C 7.570312 18.128906 7.824219 18.601562 8.125 19.050781 C 8.421875 19.5 8.765625 19.914062 9.144531 20.296875 Z M 14.960938 9.847656 L 19.804688 14 L 18.980469 14.960938 L 14.960938 11.515625 L 10.945312 14.960938 L 10.121094 14 Z M 14.960938 13.644531 L 19.804688 17.796875 L 18.980469 18.757812 L 14.960938 15.3125 L 10.945312 18.757812 L 10.121094 17.796875 Z M 14.960938 13.644531 " fill-opacity="1" fill-rule="nonzero"/><path fill="#061953" d="M 8.25 21.191406 C 8.691406 21.632812 9.171875 22.027344 9.691406 22.375 C 10.207031 22.71875 10.753906 23.011719 11.332031 23.25 C 11.90625 23.488281 12.5 23.667969 13.113281 23.789062 C 13.722656 23.914062 14.339844 23.972656 14.964844 23.972656 C 15.585938 23.972656 16.203125 23.914062 16.816406 23.789062 C 17.425781 23.667969 18.019531 23.488281 18.597656 23.25 C 19.171875 23.011719 19.71875 22.71875 20.238281 22.375 C 20.753906 22.027344 21.234375 21.632812 21.675781 21.191406 C 22.117188 20.75 22.511719 20.273438 22.855469 19.753906 C 23.203125 19.234375 23.496094 18.6875 23.734375 18.113281 C 23.972656 17.535156 24.152344 16.941406 24.273438 16.332031 C 24.394531 15.71875 24.457031 15.101562 24.457031 14.480469 C 24.457031 13.855469 24.394531 13.238281 24.273438 12.628906 C 24.152344 12.015625 23.972656 11.421875 23.734375 10.847656 C 23.496094 10.269531 23.203125 9.722656 22.855469 9.207031 C 22.511719 8.6875 22.117188 8.207031 21.675781 7.765625 C 21.234375 7.328125 20.753906 6.933594 20.238281 6.585938 C 19.71875 6.242188 19.171875 5.949219 18.597656 5.710938 C 18.019531 5.472656 17.425781 5.289062 16.816406 5.167969 C 16.203125 5.046875 15.585938 4.988281 14.964844 4.988281 C 14.339844 4.988281 13.722656 5.046875 13.113281 5.167969 C 12.5 5.289062 11.90625 5.472656 11.332031 5.710938 C 10.753906 5.949219 10.207031 6.242188 9.691406 6.585938 C 9.171875 6.933594 8.691406 7.328125 8.25 7.765625 C 7.808594 8.207031 7.417969 8.6875 7.070312 9.207031 C 6.726562 9.722656 6.433594 10.269531 6.195312 10.847656 C 5.957031 11.421875 5.777344 12.015625 5.65625 12.628906 C 5.53125 13.238281 5.472656 13.855469 5.472656 14.480469 C 5.472656 15.101562 5.53125 15.71875 5.65625 16.332031 C 5.777344 16.941406 5.957031 17.535156 6.195312 18.113281 C 6.433594 18.6875 6.726562 19.234375 7.070312 19.753906 C 7.417969 20.273438 7.808594 20.75 8.25 21.191406 Z M 20.78125 8.660156 C 21.164062 9.042969 21.503906 9.460938 21.804688 9.910156 C 22.105469 10.359375 22.359375 10.832031 22.566406 11.332031 C 22.773438 11.832031 22.929688 12.34375 23.035156 12.875 C 23.140625 13.40625 23.191406 13.9375 23.191406 14.480469 C 23.191406 15.019531 23.140625 15.554688 23.035156 16.085938 C 22.929688 16.613281 22.773438 17.128906 22.566406 17.628906 C 22.359375 18.128906 22.105469 18.601562 21.804688 19.050781 C 21.503906 19.5 21.164062 19.914062 20.78125 20.296875 C 20.398438 20.679688 19.984375 21.019531 19.535156 21.320312 C 19.085938 21.621094 18.613281 21.875 18.113281 22.082031 C 17.613281 22.289062 17.097656 22.445312 16.570312 22.546875 C 16.039062 22.652344 15.503906 22.707031 14.964844 22.707031 C 14.425781 22.707031 13.890625 22.652344 13.359375 22.546875 C 12.828125 22.445312 12.316406 22.289062 11.816406 22.082031 C 11.316406 21.875 10.84375 21.621094 10.394531 21.320312 C 9.945312 21.019531 9.527344 20.679688 9.148438 20.296875 C 8.765625 19.914062 8.421875 19.5 8.125 19.050781 C 7.824219 18.601562 7.570312 18.128906 7.363281 17.628906 C 7.15625 17.128906 7 16.613281 6.894531 16.085938 C 6.789062 15.554688 6.738281 15.019531 6.738281 14.480469 C 6.738281 13.9375 6.789062 13.40625 6.894531 12.875 C 7 12.34375 7.15625 11.832031 7.363281 11.332031 C 7.570312 10.832031 7.824219 10.359375 8.125 9.910156 C 8.421875 9.460938 8.765625 9.042969 9.144531 8.660156 C 9.527344 8.28125 9.945312 7.9375 10.394531 7.640625 C 10.84375 7.339844 11.316406 7.085938 11.816406 6.878906 C 12.316406 6.671875 12.828125 6.515625 13.359375 6.410156 C 13.890625 6.304688 14.425781 6.253906 14.964844 6.253906 C 15.503906 6.253906 16.039062 6.308594 16.570312 6.410156 C 17.097656 6.515625 17.613281 6.671875 18.113281 6.878906 C 18.613281 7.085938 19.085938 7.339844 19.535156 7.640625 C 19.984375 7.941406 20.398438 8.28125 20.78125 8.664062 Z M 20.78125 8.660156 " fill-opacity="1" fill-rule="nonzero"/><path fill="#061953" d="M 14.960938 11.515625 L 18.980469 14.960938 L 19.804688 14 L 14.960938 9.847656 L 10.117188 14 L 10.941406 14.960938 Z M 14.960938 11.515625 " fill-opacity="1" fill-rule="nonzero"/><path fill="#061953" d="M 14.960938 15.3125 L 18.980469 18.757812 L 19.804688 17.796875 L 14.960938 13.644531 L 10.117188 17.796875 L 10.941406 18.757812 Z M 14.960938 15.3125 " fill-opacity="1" fill-rule="nonzero"/></svg>