<svg xmlns="http://www.w3.org/2000/svg" xmlns:xlink="http://www.w3.org/1999/xlink" width="40" zoomAndPan="magnify" viewBox="0 0 30 30.000001" height="40" preserveAspectRatio="xMidYMid meet" version="1.0"><defs><clipPath id="66b36b7e8b"><path d="M 7.964844 7.480469 L 21.753906 7.480469 L 21.753906 21.269531 L 7.964844 21.269531 Z M 7.964844 7.480469 " clip-rule="nonzero"/></clipPath></defs><g clip-path="url(#66b36b7e8b)"><path fill="#fb5731" d="M 22.027344 14.511719 C 22.027344 14.972656 21.980469 15.429688 21.890625 15.882812 C 21.800781 16.335938 21.667969 16.777344 21.492188 17.203125 C 21.316406 17.628906 21.097656 18.035156 20.84375 18.417969 C 20.585938 18.800781 20.292969 19.15625 19.96875 19.484375 C 19.640625 19.808594 19.285156 20.101562 18.902344 20.359375 C 18.519531 20.613281 18.113281 20.832031 17.6875 21.007812 C 17.261719 21.183594 16.820312 21.316406 16.367188 21.40625 C 15.914062 21.5 15.457031 21.542969 14.996094 21.542969 C 14.535156 21.542969 14.078125 21.5 13.625 21.40625 C 13.171875 21.316406 12.730469 21.183594 12.304688 21.007812 C 11.878906 20.832031 11.472656 20.613281 11.089844 20.359375 C 10.707031 20.101562 10.351562 19.808594 10.023438 19.484375 C 9.699219 19.15625 9.40625 18.800781 9.148438 18.417969 C 8.894531 18.035156 8.675781 17.628906 8.5 17.203125 C 8.324219 16.777344 8.191406 16.335938 8.101562 15.882812 C 8.007812 15.429688 7.964844 14.972656 7.964844 14.511719 C 7.964844 14.050781 8.007812 13.59375 8.101562 13.140625 C 8.191406 12.6875 8.324219 12.246094 8.5 11.820312 C 8.675781 11.394531 8.894531 10.988281 9.148438 10.605469 C 9.40625 10.222656 9.699219 9.867188 10.023438 9.539062 C 10.351562 9.214844 10.707031 8.921875 11.089844 8.664062 C 11.472656 8.410156 11.878906 8.191406 12.304688 8.015625 C 12.730469 7.839844 13.171875 7.707031 13.625 7.617188 C 14.078125 7.527344 14.535156 7.480469 14.996094 7.480469 C 15.457031 7.480469 15.914062 7.527344 16.367188 7.617188 C 16.820312 7.707031 17.261719 7.839844 17.6875 8.015625 C 18.113281 8.191406 18.519531 8.410156 18.902344 8.664062 C 19.285156 8.921875 19.640625 9.214844 19.96875 9.539062 C 20.292969 9.867188 20.585938 10.222656 20.84375 10.605469 C 21.097656 10.988281 21.316406 11.394531 21.492188 11.820312 C 21.667969 12.246094 21.800781 12.6875 21.890625 13.140625 C 21.980469 13.59375 22.027344 14.050781 22.027344 14.511719 Z M 22.027344 14.511719 " fill-opacity="1" fill-rule="nonzero"/></g><path fill="#fdfdfd" d="M 18.175781 13.726562 L 15.816406 13.703125 L 15.835938 11.34375 L 14.207031 11.332031 L 14.1875 13.691406 L 11.828125 13.671875 L 11.816406 15.300781 L 14.175781 15.320312 L 14.15625 17.679688 L 15.785156 17.691406 L 15.804688 15.332031 L 18.164062 15.351562 Z M 18.175781 13.726562 " fill-opacity="1" fill-rule="nonzero"/></svg>