<svg xmlns="http://www.w3.org/2000/svg" xmlns:xlink="http://www.w3.org/1999/xlink" width="40" zoomAndPan="magnify" viewBox="0 0 30 30.000001" height="40" preserveAspectRatio="xMidYMid meet" version="1.0"><defs><clipPath id="b4ecd47e1e"><path d="M 20 4.722656 L 23 4.722656 L 23 7 L 20 7 Z M 20 4.722656 " clip-rule="nonzero"/></clipPath><clipPath id="57198bbf7d"><path d="M 7 4.722656 L 11 4.722656 L 11 7 L 7 7 Z M 7 4.722656 " clip-rule="nonzero"/></clipPath></defs><path fill="#2d3036" d="M 19.433594 8.078125 L 20.246094 8.546875 L 19.273438 10.234375 L 18.460938 9.765625 Z M 19.433594 8.078125 " fill-opacity="1" fill-rule="nonzero"/><g clip-path="url(#b4ecd47e1e)"><path fill="#0ebeba" d="M 20 5.777344 C 20 5.777344 20.410156 4.722656 21.144531 4.960938 C 21.222656 4.984375 22.03125 5.453125 22.089844 5.507812 C 22.664062 6.023438 21.957031 6.90625 21.957031 6.90625 C 20.847656 6.953125 20.515625 6.757812 20 5.777344 Z M 20 5.777344 " fill-opacity="1" fill-rule="nonzero"/></g><path fill="#f8b80f" d="M 22.675781 7.203125 C 23.070312 7.785156 22.960938 9 22.597656 9.828125 C 22.160156 10.820312 16.511719 7.558594 17.152344 6.683594 C 17.6875 5.953125 18.683594 5.253906 19.382812 5.304688 C 19.902344 5.339844 22.382812 6.773438 22.675781 7.203125 Z M 22.675781 7.203125 " fill-opacity="1" fill-rule="nonzero"/><path fill="#2d3036" d="M 10.644531 8.078125 L 9.832031 8.546875 L 10.804688 10.234375 L 11.617188 9.765625 Z M 10.644531 8.078125 " fill-opacity="1" fill-rule="nonzero"/><g clip-path="url(#57198bbf7d)"><path fill="#0ebeba" d="M 10.078125 5.777344 C 10.078125 5.777344 9.667969 4.722656 8.933594 4.960938 C 8.855469 4.984375 8.046875 5.453125 7.988281 5.507812 C 7.414062 6.023438 8.121094 6.90625 8.121094 6.90625 C 9.230469 6.953125 9.5625 6.757812 10.078125 5.777344 Z M 10.078125 5.777344 " fill-opacity="1" fill-rule="nonzero"/></g><path fill="#f8b80f" d="M 7.402344 7.203125 C 7.007812 7.785156 7.117188 9 7.480469 9.828125 C 7.917969 10.820312 13.570312 7.558594 12.925781 6.683594 C 12.390625 5.953125 11.394531 5.253906 10.695312 5.304688 C 10.175781 5.339844 7.695312 6.773438 7.402344 7.203125 Z M 7.402344 7.203125 " fill-opacity="1" fill-rule="nonzero"/><path fill="#2d3036" d="M 14.585938 6.492188 L 15.492188 6.492188 L 15.492188 8.546875 L 14.585938 8.546875 Z M 14.585938 6.492188 " fill-opacity="1" fill-rule="nonzero"/><path fill="#2d3036" d="M 19.433594 20.863281 C 19.433594 20.863281 20.175781 23.082031 19.851562 23.695312 C 19.523438 24.308594 17.925781 22.265625 17.660156 21.851562 C 17.390625 21.433594 19.433594 20.863281 19.433594 20.863281 Z M 10.644531 20.863281 C 10.644531 20.863281 9.902344 23.082031 10.226562 23.695312 C 10.554688 24.308594 12.152344 22.265625 12.417969 21.851562 C 12.6875 21.433594 10.644531 20.863281 10.644531 20.863281 Z M 10.644531 20.863281 " fill-opacity="1" fill-rule="nonzero"/><path fill="#fb5d38" d="M 21.335938 11.40625 C 24.671875 16.472656 21.085938 22.585938 15.214844 22.71875 C 9.199219 22.855469 5.316406 16.605469 8.746094 11.40625 C 11.8125 6.753906 18.269531 6.753906 21.335938 11.40625 Z M 21.335938 11.40625 " fill-opacity="1" fill-rule="nonzero"/><path fill="#ffffff" d="M 19.894531 12.300781 C 22.46875 16.207031 19.703125 20.925781 15.175781 21.027344 C 10.535156 21.128906 7.539062 16.3125 10.183594 12.300781 C 12.550781 8.714844 17.53125 8.714844 19.894531 12.300781 Z M 19.894531 12.300781 " fill-opacity="1" fill-rule="nonzero"/><path fill="#0ebeba" d="M 16.148438 5.578125 C 16.546875 5.609375 16.414062 6.398438 16.402344 6.527344 C 16.390625 6.65625 16.246094 6.683594 15.835938 6.710938 C 15.386719 6.738281 14.691406 6.738281 14.242188 6.710938 C 13.832031 6.683594 13.6875 6.65625 13.675781 6.527344 C 13.664062 6.398438 13.53125 5.609375 13.929688 5.578125 C 14.554688 5.53125 15.523438 5.53125 16.148438 5.578125 Z M 16.148438 5.578125 " fill-opacity="1" fill-rule="nonzero"/><path fill="#2d3036" d="M 20.246094 15.320312 C 20.246094 15.429688 20.15625 15.523438 20.042969 15.523438 L 19.15625 15.523438 C 19.042969 15.523438 18.953125 15.429688 18.953125 15.320312 C 18.953125 15.207031 19.042969 15.117188 19.15625 15.117188 L 20.042969 15.117188 C 20.15625 15.117188 20.246094 15.207031 20.246094 15.320312 Z M 15.039062 10.113281 C 15.152344 10.113281 15.242188 10.203125 15.242188 10.316406 L 15.242188 11.203125 C 15.242188 11.316406 15.152344 11.40625 15.039062 11.40625 C 14.929688 11.40625 14.835938 11.316406 14.835938 11.203125 L 14.835938 10.316406 C 14.835938 10.203125 14.929688 10.113281 15.039062 10.113281 Z M 15.039062 19.234375 C 15.152344 19.234375 15.242188 19.324219 15.242188 19.433594 L 15.242188 20.324219 C 15.242188 20.433594 15.152344 20.527344 15.039062 20.527344 C 14.929688 20.527344 14.835938 20.433594 14.835938 20.324219 L 14.835938 19.433594 C 14.835938 19.324219 14.929688 19.234375 15.039062 19.234375 Z M 17.640625 19.828125 C 17.546875 19.882812 17.421875 19.851562 17.367188 19.753906 L 17.207031 19.480469 C 17.152344 19.382812 17.1875 19.261719 17.28125 19.203125 C 17.378906 19.148438 17.503906 19.183594 17.558594 19.277344 L 17.714844 19.550781 C 17.773438 19.648438 17.738281 19.773438 17.640625 19.828125 Z M 12.796875 11.433594 C 12.699219 11.492188 12.574219 11.457031 12.519531 11.359375 L 12.363281 11.085938 C 12.304688 10.992188 12.339844 10.867188 12.4375 10.8125 C 12.53125 10.753906 12.65625 10.789062 12.710938 10.886719 L 12.871094 11.160156 C 12.925781 11.253906 12.894531 11.378906 12.796875 11.433594 Z M 19.546875 17.921875 C 19.492188 18.019531 19.367188 18.050781 19.273438 17.996094 L 18.996094 17.839844 C 18.902344 17.785156 18.867188 17.660156 18.925781 17.5625 C 18.980469 17.464844 19.105469 17.433594 19.199219 17.488281 L 19.472656 17.644531 C 19.570312 17.703125 19.605469 17.828125 19.546875 17.921875 Z M 11.152344 13.078125 C 11.097656 13.171875 10.972656 13.207031 10.878906 13.152344 L 10.605469 12.992188 C 10.507812 12.9375 10.476562 12.8125 10.53125 12.714844 C 10.585938 12.621094 10.710938 12.585938 10.808594 12.640625 L 11.082031 12.800781 C 11.175781 12.855469 11.210938 12.980469 11.152344 13.078125 Z M 19.546875 12.714844 C 19.605469 12.8125 19.570312 12.9375 19.472656 12.992188 L 19.199219 13.152344 C 19.105469 13.207031 18.980469 13.171875 18.925781 13.078125 C 18.867188 12.980469 18.902344 12.855469 18.996094 12.800781 L 19.273438 12.640625 C 19.367188 12.585938 19.492188 12.621094 19.546875 12.714844 Z M 11.152344 17.5625 C 11.210938 17.660156 11.175781 17.785156 11.082031 17.839844 L 10.808594 17.996094 C 10.710938 18.050781 10.585938 18.019531 10.53125 17.921875 C 10.476562 17.828125 10.507812 17.703125 10.605469 17.644531 L 10.878906 17.488281 C 10.972656 17.433594 11.097656 17.464844 11.152344 17.5625 Z M 17.640625 10.8125 C 17.738281 10.867188 17.773438 10.992188 17.714844 11.085938 L 17.558594 11.359375 C 17.503906 11.457031 17.378906 11.492188 17.28125 11.433594 C 17.1875 11.378906 17.152344 11.253906 17.207031 11.160156 L 17.367188 10.886719 C 17.421875 10.789062 17.546875 10.753906 17.640625 10.8125 Z M 12.796875 19.203125 C 12.890625 19.261719 12.925781 19.382812 12.871094 19.480469 L 12.710938 19.753906 C 12.65625 19.851562 12.53125 19.882812 12.4375 19.828125 C 12.339844 19.773438 12.304688 19.648438 12.363281 19.550781 L 12.519531 19.277344 C 12.574219 19.183594 12.699219 19.148438 12.796875 19.203125 Z M 11.125 15.320312 C 11.125 15.429688 11.035156 15.523438 10.921875 15.523438 L 10.035156 15.523438 C 9.921875 15.523438 9.832031 15.429688 9.832031 15.320312 C 9.832031 15.207031 9.921875 15.117188 10.035156 15.117188 L 10.921875 15.117188 C 11.035156 15.117188 11.125 15.207031 11.125 15.320312 Z M 11.125 15.320312 " fill-opacity="1" fill-rule="nonzero"/><path fill="#0ebeba" d="M 15.710938 14.902344 C 16.066406 15.441406 15.683594 16.09375 15.058594 16.109375 C 14.417969 16.125 14.003906 15.457031 14.367188 14.902344 C 14.695312 14.40625 15.382812 14.40625 15.710938 14.902344 Z M 15.710938 14.902344 " fill-opacity="1" fill-rule="nonzero"/><path fill="#0ebeba" d="M 15.039062 11.824219 C 15.214844 11.824219 15.355469 11.96875 15.355469 12.140625 L 15.355469 15.003906 C 15.355469 15.175781 15.214844 15.320312 15.039062 15.320312 C 14.867188 15.320312 14.722656 15.175781 14.722656 15.003906 L 14.722656 12.140625 C 14.722656 11.96875 14.867188 11.824219 15.039062 11.824219 Z M 15.039062 11.824219 " fill-opacity="1" fill-rule="nonzero"/><path fill="#0ebeba" d="M 12.859375 16.578125 C 12.773438 16.429688 12.824219 16.234375 12.976562 16.148438 L 14.609375 15.203125 C 14.757812 15.117188 14.953125 15.167969 15.039062 15.320312 C 15.125 15.46875 15.074219 15.664062 14.921875 15.75 L 13.289062 16.695312 C 13.140625 16.78125 12.945312 16.730469 12.859375 16.578125 Z M 12.859375 16.578125 " fill-opacity="1" fill-rule="nonzero"/></svg>
