<svg xmlns="http://www.w3.org/2000/svg" xmlns:xlink="http://www.w3.org/1999/xlink" width="40" zoomAndPan="magnify" viewBox="0 0 30 30.000001" height="40" preserveAspectRatio="xMidYMid meet" version="1.0"><defs><clipPath id="a317098f62"><path d="M 6 5.105469 L 18 5.105469 L 18 18 L 6 18 Z M 6 5.105469 " clip-rule="nonzero"/></clipPath><clipPath id="281b27196c"><path d="M 5.589844 5.105469 L 24.460938 5.105469 L 24.460938 23.976562 L 5.589844 23.976562 Z M 5.589844 5.105469 " clip-rule="nonzero"/></clipPath></defs><g clip-path="url(#a317098f62)"><path fill="#fcbc16" d="M 16.351562 5.824219 L 7.429688 5.824219 C 6.8125 5.824219 6.308594 6.328125 6.308594 6.945312 L 6.308594 14.054688 C 6.308594 14.671875 6.8125 15.171875 7.429688 15.171875 L 8.734375 15.171875 C 8.878906 15.171875 9 15.292969 9 15.4375 L 9 17.621094 L 11.96875 15.230469 C 12.015625 15.195312 12.074219 15.171875 12.136719 15.171875 L 16.351562 15.171875 C 16.96875 15.171875 17.46875 14.671875 17.46875 14.054688 L 17.46875 6.945312 C 17.46875 6.328125 16.96875 5.824219 16.351562 5.824219 Z M 16.351562 5.824219 " fill-opacity="1" fill-rule="nonzero"/></g><path fill="#fb5d38" d="M 22.765625 12.976562 L 18 12.976562 L 18 14.054688 C 18 14.964844 17.261719 15.703125 16.351562 15.703125 L 14.246094 15.703125 L 14.246094 19.949219 C 14.246094 20.457031 14.65625 20.867188 15.160156 20.867188 L 18.753906 20.867188 C 18.8125 20.867188 18.871094 20.886719 18.917969 20.925781 L 21.390625 22.910156 L 21.390625 21.132812 C 21.390625 20.984375 21.507812 20.867188 21.65625 20.867188 L 22.765625 20.867188 C 23.273438 20.867188 23.683594 20.457031 23.683594 19.949219 L 23.683594 13.890625 C 23.683594 13.386719 23.273438 12.976562 22.765625 12.976562 Z M 22.765625 12.976562 " fill-opacity="1" fill-rule="nonzero"/><path fill="#f9fafd" d="M 12.773438 13.628906 C 12.65625 13.628906 12.554688 13.558594 12.464844 13.421875 L 12.460938 13.417969 L 11.320312 11.316406 C 11.238281 11.152344 11.089844 11.03125 10.90625 10.96875 L 10.777344 10.925781 L 10.777344 8.636719 L 10.964844 8.632812 C 11.171875 8.625 11.351562 8.546875 11.5 8.398438 L 11.589844 8.308594 C 11.644531 8.257812 11.699219 8.234375 11.773438 8.234375 L 14.269531 8.234375 L 14.3125 8.367188 C 14.320312 8.390625 14.324219 8.417969 14.328125 8.445312 L 14.734375 11.324219 L 14.726562 11.359375 C 14.699219 11.476562 14.59375 11.558594 14.472656 11.558594 L 13.144531 11.558594 C 13.0625 11.558594 12.984375 11.597656 12.933594 11.664062 C 12.882812 11.726562 12.867188 11.8125 12.886719 11.890625 L 13.144531 12.894531 C 13.234375 13.246094 13.078125 13.523438 12.882812 13.605469 C 12.859375 13.617188 12.824219 13.628906 12.773438 13.628906 Z M 12.773438 13.628906 " fill-opacity="1" fill-rule="nonzero"/><path fill="#0ebeba" d="M 9.046875 8.234375 L 10.246094 8.234375 L 10.246094 11.324219 L 9.046875 11.324219 Z M 9.046875 8.234375 " fill-opacity="1" fill-rule="nonzero"/><g clip-path="url(#281b27196c)"><path fill="#47484a" d="M 15.042969 8.34375 C 15.042969 8.339844 15.042969 8.335938 15.042969 8.332031 C 14.957031 7.820312 14.625 7.511719 14.152344 7.511719 L 11.773438 7.511719 C 11.507812 7.511719 11.269531 7.609375 11.078125 7.800781 L 10.988281 7.890625 C 10.972656 7.90625 10.964844 7.910156 10.941406 7.910156 L 10.929688 7.910156 C 10.84375 7.679688 10.621094 7.511719 10.359375 7.511719 L 8.929688 7.511719 C 8.597656 7.511719 8.324219 7.785156 8.324219 8.117188 L 8.324219 11.4375 C 8.324219 11.773438 8.597656 12.046875 8.929688 12.046875 L 10.359375 12.046875 C 10.53125 12.046875 10.683594 11.972656 10.796875 11.859375 L 11.832031 13.765625 C 11.835938 13.773438 11.839844 13.78125 11.84375 13.789062 C 12.09375 14.191406 12.445312 14.351562 12.773438 14.351562 C 12.914062 14.351562 13.046875 14.320312 13.167969 14.269531 C 13.648438 14.0625 14.035156 13.464844 13.84375 12.714844 L 13.730469 12.28125 L 14.472656 12.28125 C 15.011719 12.28125 15.457031 11.839844 15.457031 11.296875 C 15.457031 11.273438 15.453125 11.253906 15.449219 11.234375 Z M 10.058594 11.132812 L 9.234375 11.132812 L 9.234375 8.421875 L 10.058594 8.421875 Z M 14.472656 11.371094 L 13.144531 11.371094 C 13.003906 11.371094 12.871094 11.433594 12.78125 11.546875 C 12.695312 11.65625 12.667969 11.800781 12.703125 11.9375 L 12.960938 12.945312 C 13.03125 13.207031 12.914062 13.386719 12.808594 13.433594 C 12.789062 13.441406 12.722656 13.46875 12.625 13.320312 L 11.488281 11.230469 C 11.382812 11.019531 11.195312 10.863281 10.96875 10.789062 L 10.96875 8.820312 C 11.222656 8.8125 11.453125 8.714844 11.636719 8.53125 L 11.726562 8.441406 C 11.738281 8.425781 11.75 8.421875 11.773438 8.421875 L 14.128906 8.421875 C 14.132812 8.4375 14.136719 8.453125 14.140625 8.476562 L 14.542969 11.3125 C 14.535156 11.34375 14.503906 11.371094 14.472656 11.371094 Z M 22.765625 12.253906 L 18.191406 12.253906 L 18.191406 6.945312 C 18.191406 5.929688 17.363281 5.105469 16.351562 5.105469 L 7.429688 5.105469 C 6.414062 5.105469 5.589844 5.929688 5.589844 6.945312 L 5.589844 14.054688 C 5.589844 15.070312 6.414062 15.894531 7.429688 15.894531 L 8.277344 15.894531 L 8.277344 18.171875 C 8.277344 18.347656 8.378906 18.507812 8.535156 18.582031 C 8.597656 18.613281 8.667969 18.628906 8.734375 18.628906 C 8.835938 18.628906 8.9375 18.59375 9.019531 18.527344 L 12.296875 15.894531 L 13.527344 15.894531 L 13.527344 19.949219 C 13.527344 20.851562 14.257812 21.585938 15.160156 21.585938 L 18.59375 21.585938 L 21.371094 23.820312 C 21.453125 23.882812 21.554688 23.917969 21.65625 23.917969 C 21.722656 23.917969 21.789062 23.902344 21.851562 23.875 C 22.007812 23.796875 22.109375 23.640625 22.109375 23.464844 L 22.109375 21.585938 L 22.765625 21.585938 C 23.667969 21.585938 24.402344 20.851562 24.402344 19.949219 L 24.402344 13.890625 C 24.402344 12.988281 23.667969 12.253906 22.765625 12.253906 Z M 12.136719 14.984375 C 12.03125 14.984375 11.929688 15.019531 11.851562 15.085938 L 9.1875 17.222656 L 9.1875 15.4375 C 9.1875 15.1875 8.984375 14.984375 8.734375 14.984375 L 7.429688 14.984375 C 6.914062 14.984375 6.5 14.566406 6.5 14.054688 L 6.5 6.945312 C 6.5 6.433594 6.914062 6.015625 7.429688 6.015625 L 16.351562 6.015625 C 16.863281 6.015625 17.28125 6.433594 17.28125 6.945312 L 17.28125 14.054688 C 17.28125 14.566406 16.863281 14.984375 16.351562 14.984375 Z M 23.492188 19.949219 C 23.492188 20.351562 23.167969 20.675781 22.765625 20.675781 L 21.65625 20.675781 C 21.402344 20.675781 21.199219 20.882812 21.199219 21.132812 L 21.199219 22.515625 L 19.039062 20.777344 C 18.957031 20.710938 18.855469 20.675781 18.753906 20.675781 L 15.160156 20.675781 C 14.761719 20.675781 14.4375 20.351562 14.4375 19.949219 L 14.4375 15.894531 L 16.351562 15.894531 C 17.363281 15.894531 18.191406 15.070312 18.191406 14.054688 L 18.191406 13.164062 L 22.765625 13.164062 C 23.167969 13.164062 23.492188 13.492188 23.492188 13.890625 Z M 21.945312 16.921875 C 21.945312 17.171875 21.742188 17.375 21.492188 17.375 L 16.4375 17.375 C 16.1875 17.375 15.980469 17.171875 15.980469 16.921875 C 15.980469 16.667969 16.1875 16.464844 16.4375 16.464844 L 21.492188 16.464844 C 21.742188 16.464844 21.945312 16.667969 21.945312 16.921875 Z M 21.945312 15.4375 C 21.945312 15.691406 21.742188 15.894531 21.492188 15.894531 L 18.964844 15.894531 C 18.714844 15.894531 18.507812 15.691406 18.507812 15.4375 C 18.507812 15.1875 18.714844 14.984375 18.964844 14.984375 L 21.492188 14.984375 C 21.742188 14.984375 21.945312 15.1875 21.945312 15.4375 Z M 21.945312 18.402344 C 21.945312 18.65625 21.742188 18.859375 21.492188 18.859375 L 16.4375 18.859375 C 16.1875 18.859375 15.980469 18.65625 15.980469 18.402344 C 15.980469 18.152344 16.1875 17.949219 16.4375 17.949219 L 21.492188 17.949219 C 21.742188 17.949219 21.945312 18.152344 21.945312 18.402344 Z M 21.945312 18.402344 " fill-opacity="1" fill-rule="nonzero"/></g></svg>
