<svg xmlns="http://www.w3.org/2000/svg" xmlns:xlink="http://www.w3.org/1999/xlink" width="40" zoomAndPan="magnify" viewBox="0 0 30 30.000001" height="40" preserveAspectRatio="xMidYMid meet" version="1.0"><defs><filter x="0%" y="0%" width="100%" height="100%" id="7ded94718c"><feColorMatrix values="0 0 0 0 1 0 0 0 0 1 0 0 0 0 1 0 0 0 1 0" color-interpolation-filters="sRGB"/></filter><clipPath id="6157e8bfdd"><path d="M 15 8 L 23 8 L 23 17 L 15 17 Z M 15 8 " clip-rule="nonzero"/></clipPath><clipPath id="6642badb04"><path d="M 8.648438 5.097656 L 23.109375 6.390625 L 21.558594 23.738281 L 7.097656 22.449219 Z M 8.648438 5.097656 " clip-rule="nonzero"/></clipPath><clipPath id="bf3c33c664"><path d="M 8.648438 5.097656 L 23.109375 6.390625 L 21.558594 23.738281 L 7.097656 22.449219 Z M 8.648438 5.097656 " clip-rule="nonzero"/></clipPath><clipPath id="5f1b0e0d04"><path d="M 14 8 L 20 8 L 20 16 L 14 16 Z M 14 8 " clip-rule="nonzero"/></clipPath><clipPath id="91cad7f25e"><path d="M 8.648438 5.097656 L 23.109375 6.390625 L 21.558594 23.738281 L 7.097656 22.449219 Z M 8.648438 5.097656 " clip-rule="nonzero"/></clipPath><clipPath id="b3482f4f9b"><path d="M 8.648438 5.097656 L 23.109375 6.390625 L 21.558594 23.738281 L 7.097656 22.449219 Z M 8.648438 5.097656 " clip-rule="nonzero"/></clipPath><mask id="04a25bf58b"><g filter="url(#7ded94718c)"><rect x="-3" width="36" fill="#000000" y="-3" height="36.000001" fill-opacity="0.15"/></g></mask><clipPath id="5c69aa0de6"><path d="M 1 0.128906 L 5.527344 0.128906 L 5.527344 7.328125 L 1 7.328125 Z M 1 0.128906 " clip-rule="nonzero"/></clipPath><clipPath id="f418b27869"><path d="M -5.351562 -2.902344 L 9.109375 -1.609375 L 7.558594 15.738281 L -6.902344 14.449219 Z M -5.351562 -2.902344 " clip-rule="nonzero"/></clipPath><clipPath id="129247df62"><path d="M -5.351562 -2.902344 L 9.109375 -1.609375 L 7.558594 15.738281 L -6.902344 14.449219 Z M -5.351562 -2.902344 " clip-rule="nonzero"/></clipPath><clipPath id="4039f88485"><rect x="0" width="6" y="0" height="8"/></clipPath><clipPath id="94fff8ed0b"><path d="M 14 8 L 23 8 L 23 17 L 14 17 Z M 14 8 " clip-rule="nonzero"/></clipPath><clipPath id="34bbbd9882"><path d="M 8.648438 5.097656 L 23.109375 6.390625 L 21.558594 23.738281 L 7.097656 22.449219 Z M 8.648438 5.097656 " clip-rule="nonzero"/></clipPath><clipPath id="5ad1087cfc"><path d="M 8.648438 5.097656 L 23.109375 6.390625 L 21.558594 23.738281 L 7.097656 22.449219 Z M 8.648438 5.097656 " clip-rule="nonzero"/></clipPath><clipPath id="6cb159bee1"><path d="M 8 6 L 19 6 L 19 15 L 8 15 Z M 8 6 " clip-rule="nonzero"/></clipPath><clipPath id="088569b775"><path d="M 8.648438 5.097656 L 23.109375 6.390625 L 21.558594 23.738281 L 7.097656 22.449219 Z M 8.648438 5.097656 " clip-rule="nonzero"/></clipPath><clipPath id="09a4e0fd37"><path d="M 8.648438 5.097656 L 23.109375 6.390625 L 21.558594 23.738281 L 7.097656 22.449219 Z M 8.648438 5.097656 " clip-rule="nonzero"/></clipPath><clipPath id="fb3c5b0f90"><path d="M 9 6 L 12 6 L 12 14 L 9 14 Z M 9 6 " clip-rule="nonzero"/></clipPath><clipPath id="3f0e7ab224"><path d="M 8.648438 5.097656 L 23.109375 6.390625 L 21.558594 23.738281 L 7.097656 22.449219 Z M 8.648438 5.097656 " clip-rule="nonzero"/></clipPath><clipPath id="50d50b7550"><path d="M 8.648438 5.097656 L 23.109375 6.390625 L 21.558594 23.738281 L 7.097656 22.449219 Z M 8.648438 5.097656 " clip-rule="nonzero"/></clipPath><mask id="92f52f78a7"><g filter="url(#7ded94718c)"><rect x="-3" width="36" fill="#000000" y="-3" height="36.000001" fill-opacity="0.15"/></g></mask><clipPath id="485e497ac5"><path d="M 1 1 L 2.398438 1 L 2.398438 7.933594 L 1 7.933594 Z M 1 1 " clip-rule="nonzero"/></clipPath><clipPath id="d7a02f7931"><path d="M -0.351562 -0.902344 L 14.109375 0.390625 L 12.558594 17.738281 L -1.902344 16.449219 Z M -0.351562 -0.902344 " clip-rule="nonzero"/></clipPath><clipPath id="b899f35723"><path d="M -0.351562 -0.902344 L 14.109375 0.390625 L 12.558594 17.738281 L -1.902344 16.449219 Z M -0.351562 -0.902344 " clip-rule="nonzero"/></clipPath><clipPath id="fdbb0921cf"><rect x="0" width="3" y="0" height="8"/></clipPath><clipPath id="d7d5880af2"><path d="M 7 5 L 11 5 L 11 23 L 7 23 Z M 7 5 " clip-rule="nonzero"/></clipPath><clipPath id="c846bb457e"><path d="M 8.648438 5.097656 L 23.109375 6.390625 L 21.558594 23.738281 L 7.097656 22.449219 Z M 8.648438 5.097656 " clip-rule="nonzero"/></clipPath><clipPath id="cfc51f7234"><path d="M 8.648438 5.097656 L 23.109375 6.390625 L 21.558594 23.738281 L 7.097656 22.449219 Z M 8.648438 5.097656 " clip-rule="nonzero"/></clipPath><clipPath id="f749481fc1"><path d="M 11 7 L 12 7 L 12 9 L 11 9 Z M 11 7 " clip-rule="nonzero"/></clipPath><clipPath id="c99d06806a"><path d="M 8.648438 5.097656 L 23.109375 6.390625 L 21.558594 23.738281 L 7.097656 22.449219 Z M 8.648438 5.097656 " clip-rule="nonzero"/></clipPath><clipPath id="2a5715b21f"><path d="M 8.648438 5.097656 L 23.109375 6.390625 L 21.558594 23.738281 L 7.097656 22.449219 Z M 8.648438 5.097656 " clip-rule="nonzero"/></clipPath><clipPath id="817132c480"><path d="M 10 8 L 12 8 L 12 13 L 10 13 Z M 10 8 " clip-rule="nonzero"/></clipPath><clipPath id="50f571905c"><path d="M 8.648438 5.097656 L 23.109375 6.390625 L 21.558594 23.738281 L 7.097656 22.449219 Z M 8.648438 5.097656 " clip-rule="nonzero"/></clipPath><clipPath id="fb75227566"><path d="M 8.648438 5.097656 L 23.109375 6.390625 L 21.558594 23.738281 L 7.097656 22.449219 Z M 8.648438 5.097656 " clip-rule="nonzero"/></clipPath></defs><g clip-path="url(#6157e8bfdd)"><g clip-path="url(#6642badb04)"><g clip-path="url(#bf3c33c664)"><path fill="#feb80f" d="M 21.726562 16.027344 L 15.0625 15.429688 L 15.671875 8.621094 L 22.332031 9.21875 L 19.820312 12.425781 Z M 21.726562 16.027344 " fill-opacity="1" fill-rule="nonzero"/></g></g></g><g clip-path="url(#5f1b0e0d04)"><g clip-path="url(#91cad7f25e)"><g clip-path="url(#b3482f4f9b)"><g mask="url(#04a25bf58b)"><g transform="matrix(1, 0, 0, 1, 14, 8)"><g clip-path="url(#4039f88485)"><g clip-path="url(#5c69aa0de6)"><g clip-path="url(#f418b27869)"><g clip-path="url(#129247df62)"><path fill="#333333" d="M 1.109375 6.886719 L 4.226562 7.164062 C 4.441406 7.183594 4.601562 7.054688 4.621094 6.835938 L 5.148438 0.933594 L 1.671875 0.621094 Z M 1.109375 6.886719 " fill-opacity="1" fill-rule="nonzero"/></g></g></g></g></g></g></g></g></g><g clip-path="url(#94fff8ed0b)"><g clip-path="url(#34bbbd9882)"><g clip-path="url(#5ad1087cfc)"><path fill="#333333" d="M 21.699219 16.316406 L 15.035156 15.71875 C 14.890625 15.707031 14.792969 15.589844 14.804688 15.445312 L 15.417969 8.601562 C 15.429688 8.457031 15.546875 8.355469 15.695312 8.371094 L 22.355469 8.964844 C 22.464844 8.972656 22.53125 9.054688 22.597656 9.132812 C 22.625 9.207031 22.617188 9.316406 22.570312 9.421875 L 20.179688 12.492188 L 21.988281 15.9375 C 22.019531 16.015625 22.042969 16.128906 21.960938 16.230469 C 21.886719 16.257812 21.773438 16.320312 21.699219 16.316406 Z M 15.339844 15.199219 L 21.203125 15.722656 L 19.550781 12.582031 C 19.484375 12.503906 19.496094 12.359375 19.578125 12.292969 L 21.761719 9.496094 L 15.894531 8.972656 Z M 15.339844 15.199219 " fill-opacity="1" fill-rule="nonzero"/></g></g></g><g clip-path="url(#6cb159bee1)"><g clip-path="url(#088569b775)"><g clip-path="url(#09a4e0fd37)"><path fill="#fd7121" d="M 9.59375 6.800781 L 18.535156 7.601562 L 17.929688 14.410156 L 8.984375 13.609375 Z M 9.59375 6.800781 " fill-opacity="1" fill-rule="nonzero"/><path fill="#333333" d="M 17.902344 14.699219 L 8.957031 13.898438 C 8.8125 13.886719 8.714844 13.769531 8.726562 13.625 L 9.339844 6.78125 C 9.351562 6.636719 9.46875 6.535156 9.613281 6.546875 L 18.558594 7.347656 C 18.703125 7.359375 18.800781 7.480469 18.789062 7.625 L 18.179688 14.429688 C 18.203125 14.578125 18.046875 14.710938 17.902344 14.699219 Z M 9.296875 13.382812 L 17.695312 14.132812 L 18.257812 7.867188 L 9.855469 7.117188 Z M 9.296875 13.382812 " fill-opacity="1" fill-rule="nonzero"/></g></g></g><g clip-path="url(#fb3c5b0f90)"><g clip-path="url(#3f0e7ab224)"><g clip-path="url(#50d50b7550)"><g mask="url(#92f52f78a7)"><g transform="matrix(1, 0, 0, 1, 9, 6)"><g clip-path="url(#fdbb0921cf)"><g clip-path="url(#485e497ac5)"><g clip-path="url(#d7a02f7931)"><g clip-path="url(#b899f35723)"><path fill="#333333" d="M 1.652344 1.1875 L 2.085938 1.226562 L 1.527344 7.492188 L 1.09375 7.453125 Z M 1.652344 1.1875 " fill-opacity="1" fill-rule="nonzero"/></g></g></g></g></g></g></g></g></g><g clip-path="url(#d7d5880af2)"><g clip-path="url(#c846bb457e)"><g clip-path="url(#cfc51f7234)"><path fill="#19bfc2" d="M 9.035156 22.445312 L 7.367188 22.296875 L 8.796875 6.292969 C 8.839844 5.824219 9.234375 5.492188 9.707031 5.535156 C 10.175781 5.578125 10.507812 5.972656 10.464844 6.441406 Z M 9.035156 22.445312 " fill-opacity="1" fill-rule="nonzero"/><path fill="#333333" d="M 9.261719 22.757812 L 7.089844 22.566406 L 8.542969 6.269531 C 8.601562 5.65625 9.148438 5.230469 9.726562 5.28125 C 10.308594 5.332031 10.769531 5.886719 10.71875 6.464844 Z M 7.679688 22.070312 L 8.765625 22.167969 L 10.175781 6.417969 C 10.199219 6.125 9.96875 5.851562 9.679688 5.824219 C 9.390625 5.796875 9.113281 6.03125 9.089844 6.320312 Z M 7.679688 22.070312 " fill-opacity="1" fill-rule="nonzero"/></g></g></g><g clip-path="url(#f749481fc1)"><g clip-path="url(#c99d06806a)"><g clip-path="url(#2a5715b21f)"><path fill="#ffffff" d="M 11.285156 7.867188 L 11.261719 8.121094 C 11.25 8.265625 11.347656 8.382812 11.492188 8.394531 C 11.640625 8.410156 11.757812 8.308594 11.769531 8.164062 L 11.792969 7.910156 C 11.84375 7.769531 11.742188 7.652344 11.5625 7.636719 C 11.378906 7.617188 11.296875 7.722656 11.285156 7.867188 Z M 11.285156 7.867188 " fill-opacity="1" fill-rule="nonzero"/></g></g></g><g clip-path="url(#817132c480)"><g clip-path="url(#50f571905c)"><g clip-path="url(#fb75227566)"><path fill="#ffffff" d="M 11.1875 8.953125 L 10.910156 12.066406 C 10.898438 12.210938 10.996094 12.328125 11.140625 12.34375 C 11.285156 12.355469 11.40625 12.257812 11.417969 12.113281 L 11.695312 8.996094 C 11.746094 8.855469 11.644531 8.738281 11.464844 8.722656 C 11.285156 8.707031 11.203125 8.808594 11.1875 8.953125 Z M 11.1875 8.953125 " fill-opacity="1" fill-rule="nonzero"/></g></g></g></svg>
