<svg xmlns="http://www.w3.org/2000/svg" xmlns:xlink="http://www.w3.org/1999/xlink" width="40" zoomAndPan="magnify" viewBox="0 0 30 30.000001" height="40" preserveAspectRatio="xMidYMid meet" version="1.0"><defs><clipPath id="b05d472867"><path d="M 8 7 L 21 7 L 21 23.71875 L 8 23.71875 Z M 8 7 " clip-rule="nonzero"/></clipPath><clipPath id="44cda7fbdb"><path d="M 6.058594 5.574219 L 19 5.574219 L 19 22 L 6.058594 22 Z M 6.058594 5.574219 " clip-rule="nonzero"/></clipPath><clipPath id="5e7071b1d0"><path d="M 6.058594 5.574219 L 10 5.574219 L 10 9 L 6.058594 9 Z M 6.058594 5.574219 " clip-rule="nonzero"/></clipPath><clipPath id="cb7e6e5a31"><path d="M 11 5.574219 L 13 5.574219 L 13 7 L 11 7 Z M 11 5.574219 " clip-rule="nonzero"/></clipPath><clipPath id="e2ec9cd3ea"><path d="M 6.058594 5.574219 L 24 5.574219 L 24 23.71875 L 6.058594 23.71875 Z M 6.058594 5.574219 " clip-rule="nonzero"/></clipPath></defs><g clip-path="url(#b05d472867)"><path fill="#fcbc16" d="M 20.574219 7.96875 L 20.574219 22.265625 C 20.574219 22.78125 20.15625 23.199219 19.640625 23.199219 L 9.074219 23.199219 C 8.558594 23.199219 8.140625 22.78125 8.140625 22.265625 L 8.140625 10.144531 L 11.25 7.035156 L 19.640625 7.035156 C 20.15625 7.035156 20.574219 7.453125 20.574219 7.96875 Z M 20.574219 7.96875 " fill-opacity="1" fill-rule="nonzero"/></g><g clip-path="url(#44cda7fbdb)"><path fill="#1ac7cb" d="M 18.710938 6.726562 L 18.710938 21.023438 C 18.710938 21.539062 18.292969 21.957031 17.777344 21.957031 L 7.210938 21.957031 C 6.695312 21.957031 6.277344 21.539062 6.277344 21.023438 L 6.277344 8.902344 L 9.386719 5.792969 L 17.777344 5.792969 C 18.292969 5.792969 18.710938 6.210938 18.710938 6.726562 Z M 18.710938 6.726562 " fill-opacity="1" fill-rule="nonzero"/></g><g clip-path="url(#5e7071b1d0)"><path fill="#fcbc16" d="M 9.386719 5.792969 L 9.386719 8.28125 C 9.386719 8.621094 9.105469 8.902344 8.761719 8.902344 L 6.277344 8.902344 Z M 9.386719 5.792969 " fill-opacity="1" fill-rule="nonzero"/></g><path fill="#fb5d38" d="M 23.683594 14.496094 C 23.683594 14.863281 23.648438 15.226562 23.574219 15.585938 C 23.503906 15.949219 23.398438 16.296875 23.257812 16.636719 C 23.117188 16.976562 22.945312 17.300781 22.742188 17.605469 C 22.535156 17.910156 22.304688 18.191406 22.042969 18.453125 C 21.785156 18.710938 21.503906 18.945312 21.195312 19.148438 C 20.890625 19.351562 20.570312 19.523438 20.230469 19.664062 C 19.890625 19.804688 19.539062 19.910156 19.179688 19.984375 C 18.820312 20.054688 18.457031 20.089844 18.089844 20.089844 C 17.722656 20.089844 17.355469 20.054688 16.996094 19.984375 C 16.636719 19.910156 16.285156 19.804688 15.945312 19.664062 C 15.609375 19.523438 15.285156 19.351562 14.980469 19.148438 C 14.675781 18.945312 14.390625 18.710938 14.132812 18.453125 C 13.871094 18.191406 13.640625 17.910156 13.4375 17.605469 C 13.230469 17.300781 13.058594 16.976562 12.917969 16.636719 C 12.777344 16.296875 12.671875 15.949219 12.601562 15.585938 C 12.527344 15.226562 12.492188 14.863281 12.492188 14.496094 C 12.492188 14.128906 12.527344 13.765625 12.601562 13.40625 C 12.671875 13.042969 12.777344 12.695312 12.917969 12.355469 C 13.058594 12.015625 13.230469 11.691406 13.4375 11.386719 C 13.640625 11.082031 13.871094 10.800781 14.132812 10.539062 C 14.390625 10.28125 14.675781 10.046875 14.980469 9.84375 C 15.285156 9.640625 15.609375 9.46875 15.945312 9.328125 C 16.285156 9.1875 16.636719 9.082031 16.996094 9.007812 C 17.355469 8.9375 17.722656 8.902344 18.089844 8.902344 C 18.457031 8.902344 18.820312 8.9375 19.179688 9.007812 C 19.539062 9.082031 19.890625 9.1875 20.230469 9.328125 C 20.570312 9.46875 20.890625 9.640625 21.195312 9.84375 C 21.503906 10.046875 21.785156 10.28125 22.042969 10.539062 C 22.304688 10.800781 22.535156 11.082031 22.742188 11.386719 C 22.945312 11.691406 23.117188 12.015625 23.257812 12.355469 C 23.398438 12.695312 23.503906 13.042969 23.574219 13.40625 C 23.648438 13.765625 23.683594 14.128906 23.683594 14.496094 Z M 23.683594 14.496094 " fill-opacity="1" fill-rule="nonzero"/><g clip-path="url(#cb7e6e5a31)"><path fill="#05112d" d="M 11.988281 6.027344 L 12.476562 6.027344 C 12.605469 6.027344 12.710938 5.921875 12.710938 5.792969 C 12.710938 5.664062 12.605469 5.558594 12.476562 5.558594 L 11.988281 5.558594 C 11.859375 5.558594 11.757812 5.664062 11.757812 5.792969 C 11.757812 5.921875 11.859375 6.027344 11.988281 6.027344 Z M 11.988281 6.027344 " fill-opacity="1" fill-rule="nonzero"/></g><path fill="#05112d" d="M 18.089844 17.085938 C 18.21875 17.085938 18.320312 16.984375 18.320312 16.855469 L 18.320312 12.445312 L 19.789062 13.910156 C 19.835938 13.957031 19.894531 13.980469 19.953125 13.980469 C 20.011719 13.980469 20.074219 13.957031 20.117188 13.910156 C 20.210938 13.820312 20.210938 13.671875 20.117188 13.582031 L 18.472656 11.9375 C 18.261719 11.722656 17.914062 11.722656 17.703125 11.9375 L 16.058594 13.582031 C 15.96875 13.671875 15.96875 13.820312 16.058594 13.910156 C 16.148438 14 16.296875 14 16.386719 13.910156 L 17.855469 12.445312 L 17.855469 16.855469 C 17.855469 16.984375 17.960938 17.085938 18.089844 17.085938 Z M 18.089844 17.085938 " fill-opacity="1" fill-rule="nonzero"/><g clip-path="url(#e2ec9cd3ea)"><path fill="#05112d" d="M 20.808594 9.34375 L 20.808594 7.96875 C 20.808594 7.324219 20.285156 6.804688 19.640625 6.804688 L 18.941406 6.804688 L 18.941406 6.726562 C 18.941406 6.082031 18.421875 5.558594 17.777344 5.558594 L 13.417969 5.558594 C 13.289062 5.558594 13.1875 5.664062 13.1875 5.792969 C 13.1875 5.921875 13.289062 6.027344 13.417969 6.027344 L 17.777344 6.027344 C 18.164062 6.027344 18.476562 6.339844 18.476562 6.726562 L 18.476562 8.6875 C 18.347656 8.679688 18.21875 8.667969 18.089844 8.667969 C 16.257812 8.667969 14.621094 9.519531 13.554688 10.84375 L 8.453125 10.84375 C 8.324219 10.84375 8.21875 10.949219 8.21875 11.078125 C 8.21875 11.207031 8.324219 11.308594 8.453125 11.308594 L 13.214844 11.308594 C 12.933594 11.742188 12.703125 12.210938 12.542969 12.707031 L 8.453125 12.707031 C 8.324219 12.707031 8.21875 12.8125 8.21875 12.941406 C 8.21875 13.070312 8.324219 13.175781 8.453125 13.175781 L 12.417969 13.175781 C 12.316406 13.601562 12.261719 14.042969 12.261719 14.496094 C 12.261719 14.523438 12.265625 14.546875 12.265625 14.574219 L 8.453125 14.574219 C 8.324219 14.574219 8.21875 14.679688 8.21875 14.808594 C 8.21875 14.9375 8.324219 15.039062 8.453125 15.039062 L 12.289062 15.039062 C 12.332031 15.527344 12.441406 15.992188 12.601562 16.4375 L 8.453125 16.4375 C 8.324219 16.4375 8.21875 16.542969 8.21875 16.671875 C 8.21875 16.800781 8.324219 16.90625 8.453125 16.90625 L 12.789062 16.90625 C 13.019531 17.414062 13.324219 17.886719 13.6875 18.304688 L 8.453125 18.304688 C 8.324219 18.304688 8.21875 18.40625 8.21875 18.535156 C 8.21875 18.664062 8.324219 18.769531 8.453125 18.769531 L 14.140625 18.769531 C 15.179688 19.730469 16.5625 20.324219 18.089844 20.324219 C 18.21875 20.324219 18.347656 20.3125 18.476562 20.304688 L 18.476562 21.023438 C 18.476562 21.410156 18.164062 21.722656 17.777344 21.722656 L 7.210938 21.722656 C 6.824219 21.722656 6.507812 21.410156 6.507812 21.023438 L 6.507812 9.132812 L 8.761719 9.132812 C 9.234375 9.132812 9.617188 8.75 9.617188 8.28125 L 9.617188 6.027344 L 11.0625 6.027344 C 11.191406 6.027344 11.296875 5.921875 11.296875 5.792969 C 11.296875 5.664062 11.191406 5.558594 11.0625 5.558594 L 9.386719 5.558594 C 9.324219 5.558594 9.265625 5.585938 9.21875 5.628906 L 6.113281 8.734375 C 6.066406 8.78125 6.042969 8.839844 6.042969 8.902344 L 6.042969 21.023438 C 6.042969 21.667969 6.566406 22.1875 7.210938 22.1875 L 7.910156 22.1875 L 7.910156 22.265625 C 7.910156 22.910156 8.429688 23.433594 9.074219 23.433594 L 19.640625 23.433594 C 20.285156 23.433594 20.808594 22.910156 20.808594 22.265625 L 20.808594 19.648438 C 21.273438 19.402344 21.710938 19.09375 22.101562 18.71875 C 22.195312 18.632812 22.199219 18.484375 22.113281 18.390625 C 22.023438 18.296875 21.875 18.292969 21.78125 18.382812 C 20.78125 19.335938 19.46875 19.859375 18.089844 19.859375 C 15.132812 19.859375 12.726562 17.453125 12.726562 14.496094 C 12.726562 11.539062 15.132812 9.132812 18.089844 9.132812 C 21.042969 9.132812 23.449219 11.539062 23.449219 14.496094 C 23.449219 15.550781 23.144531 16.574219 22.566406 17.449219 C 22.492188 17.554688 22.523438 17.699219 22.628906 17.769531 C 22.738281 17.84375 22.882812 17.8125 22.953125 17.707031 C 23.582031 16.753906 23.917969 15.644531 23.917969 14.496094 C 23.917969 12.265625 22.65625 10.324219 20.808594 9.34375 Z M 8.761719 8.667969 L 6.839844 8.667969 L 9.152344 6.355469 L 9.152344 8.28125 C 9.152344 8.492188 8.976562 8.667969 8.761719 8.667969 Z M 20.34375 22.265625 C 20.34375 22.652344 20.027344 22.964844 19.640625 22.964844 L 9.074219 22.964844 C 8.6875 22.964844 8.375 22.652344 8.375 22.265625 L 8.375 22.1875 L 17.777344 22.1875 C 18.421875 22.1875 18.941406 21.667969 18.941406 21.023438 L 18.941406 20.253906 C 19.425781 20.183594 19.894531 20.054688 20.34375 19.867188 Z M 18.941406 7.269531 L 19.640625 7.269531 C 20.027344 7.269531 20.34375 7.582031 20.34375 7.96875 L 20.34375 9.121094 C 19.902344 8.9375 19.429688 8.808594 18.941406 8.738281 Z M 18.941406 7.269531 " fill-opacity="1" fill-rule="nonzero"/></g></svg>
