<svg xmlns="http://www.w3.org/2000/svg" width="50" height="50" viewBox="0 0 50 50" fill="none">

  <path d="M10 15.5C10 13.6 11.6 12 13.5 12H37.5C39.4 12 41 13.6 41 15.5V34.5C41 36.4 39.4 38 37.5 38H13.5C11.6 38 10 36.4 10 34.5V15.5Z" stroke="#081B44" stroke-width="2.8"/>
  <path d="M10 16C8 14.7 6.6 14 4.8 14C4.3 14 4 14.3 4 14.8V35.5C4 35.9 4.3 36.3 4.7 36.4C6.5 36.9 8 37.7 10 39" stroke="#14B8A6" stroke-width="2.8" stroke-linecap="round" stroke-linejoin="round"/>
  <path d="M19 20H33" stroke="#FF6A3D" stroke-width="2.8" stroke-linecap="round"/>
  <path d="M19 26H33" stroke="#F6C542" stroke-width="2.8" stroke-linecap="round"/>
  <path d="M19 32H29" stroke="#14B8A6" stroke-width="2.8" stroke-linecap="round"/>
</svg>
